<svg width="46" height="44" viewBox="0 0 46 44" fill="none" xmlns="http://www.w3.org/2000/svg">
<path d="M46 2.39344L46 23.5774C46 24.9001 44.8625 25.9814 43.4463 25.9814L30.8005 25.9814L30.8005 19.7878C30.8005 17.0375 28.4252 14.8015 25.5035 14.8015L18.4 14.8015L18.4 2.40394C18.4 1.08125 19.5375 1.10102e-06 20.9537 1.04209e-06L43.4463 1.06251e-07C44.8514 4.77897e-08 46 1.07075 46 2.39344ZM34.6589 17.8668C34.6589 19.263 35.8521 20.3862 37.3353 20.3862C38.8184 20.3862 40.0116 19.263 40.0116 17.8668C40.0116 16.4706 38.8184 15.3474 37.3353 15.3474C35.8521 15.3474 34.6589 16.4811 34.6589 17.8668ZM24.3549 8.16707C24.3549 9.56324 25.5481 10.6865 27.0313 10.6865C28.5144 10.6865 29.7076 9.56324 29.7076 8.16707C29.7076 6.7709 28.5144 5.64767 27.0313 5.64767C25.5481 5.64767 24.3549 6.7709 24.3549 8.16707ZM27.6 20.2077L27.6 41.3812C27.6 42.7144 26.4514 43.7852 25.0463 43.7852L2.5537 43.7852C1.14861 43.7852 3.76553e-06 42.7144 3.7043e-06 41.3812L2.73196e-06 20.2077C2.67122e-06 18.885 1.13746 17.8038 2.5537 17.8038L25.0463 17.8038C26.4514 17.8038 27.6 18.885 27.6 20.2077ZM2.00728 39.3867C2.00728 40.7829 3.20049 41.9061 4.68364 41.9061C6.16679 41.9061 7.36 40.7829 7.36 39.3867C7.36 37.9905 6.15564 36.8673 4.68364 36.8673C3.20049 36.8673 2.00728 38.001 2.00728 39.3867ZM20.1954 39.3867C20.1954 40.7829 21.3886 41.9061 22.8718 41.9061C24.3549 41.9061 25.5481 40.7829 25.5481 39.3867C25.5481 37.9905 24.3438 36.8673 22.8718 36.8673C21.3998 36.8673 20.1954 38.001 20.1954 39.3867ZM11.1292 30.7997C11.1292 32.1959 12.3224 33.3191 13.8056 33.3191C15.2887 33.3191 16.4819 32.1854 16.4819 30.7997C16.4819 29.4036 15.2776 28.2803 13.8056 28.2803C12.3224 28.2803 11.1292 29.4036 11.1292 30.7997ZM2.00728 22.2652C2.00728 23.6614 3.20049 24.7846 4.68364 24.7846C6.16679 24.7846 7.36 23.6614 7.36 22.2652C7.36 20.8691 6.15564 19.7458 4.68364 19.7458C3.20049 19.7458 2.00728 20.8691 2.00728 22.2652ZM20.1954 22.2652C20.1954 23.6614 21.3886 24.7846 22.8718 24.7846C24.3549 24.7846 25.5481 23.6614 25.5481 22.2652C25.5481 20.8691 24.3438 19.7458 22.8718 19.7458C21.3998 19.7458 20.1954 20.8691 20.1954 22.2652Z" fill="url(#paint0_linear)"/>
<defs>
<linearGradient id="paint0_linear" x1="46" y1="18.2009" x2="42.9228" y2="48.1896" gradientUnits="userSpaceOnUse">
<stop stop-color="#FD6946"/>
<stop offset="1" stop-color="#F74153"/>
</linearGradient>
</defs>
</svg>
