<svg id="Capa_1" enable-background="new 0 0 512 512" height="512" viewBox="0 0 512 512" width="512" xmlns="http://www.w3.org/2000/svg"><g><path d="m256 209.17v83.17c0 24.65-6.77 48.82-19.59 69.87l-30.635 55.173-122.96-41.941 31.525-54.392c13.64-20.55 20.93-44.65 20.93-69.32v-75.41c0-17.68 3.96-35.13 11.59-51.08l52.66-110.03c4.356-9.124 13.689-15.21 24.14-15.21 16.8 0 29.44 15.27 26.31 31.77-13.379 81.56-16.712 101.885-19.23 117.23-.818 4.988-18.268 18.901-18.268 18.901s14.326 5.117 13.348 11.079c8.083 0 15.693 3.203 21.34 8.85 5.46 5.46 8.84 13.01 8.84 21.34z" fill="#ffddce"/><g><path d="m244.75 426.169-38.59 77.51c-3.663 7.388-12.647 10.446-20.11 6.75l-149.15-74.24c-7.42-3.69-10.44-12.7-6.75-20.11l38.59-77.52c3.712-7.467 12.758-10.416 20.11-6.74l149.15 74.231c7.42 3.7 10.44 12.7 6.75 20.119z" fill="#fedb41"/></g><g><path d="m225.82 178.98c-8.386.102-15.01 7.325-15.01 15.82v59.75c0 8.28-6.72 15-15 15-8.29 0-15-6.72-15-15v-59.75c0-24.65 19.72-45.16 43.99-45.78.654-.033 1.351-.02 5.94-.02z" fill="#ffccbd"/></g><path d="m256 209.17v83.17c0 24.65 6.77 48.82 19.59 69.87l27.831 47.59 109.71-61.371-15.471-27.379c-13.64-20.55-20.93-44.65-20.93-69.32v-75.41c0-17.68-3.96-35.13-11.59-51.08l-52.66-110.03c-4.356-9.124-13.689-15.21-24.14-15.21-16.8 0-29.44 15.27-26.31 31.77 13.379 81.56 16.712 101.885 19.23 117.23.818 4.988 18.268 18.901 18.268 18.901s-14.326 5.117-13.348 11.079c-8.083 0-15.693 3.203-21.34 8.85-5.46 5.46-8.84 13.01-8.84 21.34z" fill="#ffccbd"/><g><path d="m286.18 178.98c8.386.102 15.01 7.325 15.01 15.82v59.75c0 8.28 6.72 15 15 15 8.29 0 15-6.72 15-15v-59.75c0-24.65-19.72-45.16-43.99-45.78-.654-.033-1.351-.02-5.94-.02z" fill="#ffbda9"/></g><g><path d="m475.1 436.189-149.15 74.24c-2.1 1.04-4.39 1.57-6.68 1.57-1.61 0-3.22-.26-4.77-.78-3.78-1.26-6.89-3.97-8.66-7.54l-38.59-77.51c-3.69-7.42-.67-16.42 6.75-20.12l149.15-74.23c3.56-1.78 7.68-2.06 11.46-.8 3.77 1.27 6.88 3.98 8.65 7.54l38.59 77.52c3.69 7.411.67 16.421-6.75 20.11z" fill="#fcbf29"/></g></g></svg>