<svg width="83" height="69" viewBox="0 0 83 69" fill="none" xmlns="http://www.w3.org/2000/svg">
<path fill-rule="evenodd" clip-rule="evenodd" d="M39.1963 8.75677L31.749 1.4053C30.8682 0.529762 29.667 0.0316078 28.3858 0.00141833C27.1045 -0.0287712 25.8873 0.424087 24.9584 1.25434L2.48852 21.4822C1.55961 22.3125 1.03109 23.4446 0.999063 24.6523C0.967032 25.8599 1.4475 27.0072 2.32836 27.8827L16.8545 42.2234V17.814C16.8545 12.8175 21.1627 8.75677 26.4639 8.75677H39.1963ZM79.3805 9.28567L49.271 2.08507C48.0218 1.78316 46.7406 1.96431 45.6355 2.58323C44.5304 3.20215 43.7457 4.18336 43.4414 5.36082L42.5125 8.75732H57.5351C62.8363 8.75732 67.1445 12.818 67.1445 17.8147V62.875C67.657 62.7693 68.1535 62.5882 68.6019 62.3316C69.707 61.7126 70.4918 60.7314 70.7961 59.554L82.8398 14.7805C83.4965 12.3652 81.943 9.88949 79.3805 9.28567ZM26.4648 13.2859H57.5352C60.1777 13.2859 62.3398 15.3238 62.3398 17.8146V64.007C62.3398 66.4977 60.1777 68.5356 57.5352 68.5356H26.4648C23.8223 68.5356 21.6602 66.4977 21.6602 64.007V17.8146C21.6602 15.3238 23.8223 13.2859 26.4648 13.2859ZM35.4336 24.0037C35.4336 22.7508 34.3605 21.7394 33.0312 21.7394C31.702 21.7394 30.6289 22.7508 30.6289 24.0037C30.6289 25.2567 31.702 26.2681 33.0312 26.2681C34.3605 26.2681 35.4336 25.2567 35.4336 24.0037ZM40.3984 51.055C40.8469 51.4324 41.4234 51.6286 42 51.6286C42.5766 51.6286 43.1531 51.4324 43.6176 51.055L50.7766 45.0168L50.8246 44.9715C52.6184 43.3713 53.4832 40.941 53.1309 38.4955C52.7945 36.1557 51.3852 34.163 49.3512 33.1366C48.3742 32.6535 47.3332 32.3969 46.2602 32.3969C44.6426 32.3969 43.1531 32.9705 42 33.9517C40.8469 32.9856 39.3574 32.3969 37.7398 32.3969C36.6828 32.3969 35.6418 32.6384 34.6488 33.1366C32.6309 34.163 31.2215 36.1557 30.8852 38.4955C30.5328 40.9561 31.3977 43.3713 33.1914 44.9715L33.2395 45.0168L40.3984 51.055ZM48.5664 57.8178C48.5664 59.0707 49.6395 60.0821 50.9688 60.0821C52.298 60.0821 53.3711 59.0707 53.3711 57.8178C53.3711 56.5649 52.298 55.5535 50.9688 55.5535C49.6395 55.5535 48.5664 56.5649 48.5664 57.8178Z" fill="url(#paint0_linear)"/>
<defs>
<linearGradient id="paint0_linear" x1="48.9071" y1="-8.00284e-06" x2="-6.91308" y2="7.19918" gradientUnits="userSpaceOnUse">
<stop stop-color="#FD6946"/>
<stop offset="1" stop-color="#F74153"/>
</linearGradient>
</defs>
</svg>
