<svg width="50" height="50" viewBox="0 0 50 50" fill="none" xmlns="http://www.w3.org/2000/svg">
<path fill-rule="evenodd" clip-rule="evenodd" d="M25 0C31.6797 0 37.959 2.59766 42.6758 7.32422C47.4023 12.041 50 18.3203 50 25C50 31.6797 47.4023 37.9492 42.6758 42.6758C37.959 47.4023 31.6797 50 25 50C18.3203 50 12.0508 47.4023 7.32422 42.6758C2.59766 37.959 0 31.6797 0 25C0 18.3203 2.59766 12.041 7.32422 7.32422C12.041 2.59766 18.3203 0 25 0ZM3.66211 25C3.66211 36.7676 13.2324 46.3379 25 46.3379C36.7676 46.3379 46.3379 36.7676 46.3379 25C46.3379 13.2324 36.7676 3.66211 25 3.66211C13.2324 3.66211 3.66211 13.2324 3.66211 25ZM22.2461 18.3985H27.6855C29.1015 18.3985 30.2538 19.5508 30.2538 20.9668C30.2538 22.3828 29.1015 23.5351 27.6855 23.5351H22.2461V18.3985ZM27.6855 26.4649H22.2461V31.6017H27.6855C29.1015 31.6017 30.2538 30.4493 30.2538 29.0333C30.2538 27.6173 29.1015 26.4649 27.6855 26.4649ZM6.5918 25C6.5918 14.8438 14.8438 6.59188 25 6.59188C35.1562 6.59188 43.4082 14.8438 43.4082 25C43.4082 35.1562 35.1562 43.4081 25 43.4081C14.8438 43.4081 6.5918 35.1562 6.5918 25ZM29.4141 34.248C31.6016 33.5254 33.1836 31.4648 33.1836 29.0332C33.1836 27.4414 32.5 26.0059 31.416 25C32.5 23.9941 33.1836 22.5586 33.1836 20.9668C33.1836 18.5449 31.6016 16.4746 29.4141 15.752V13.4473H26.4844V15.4688H24.6973V13.4473H21.7676V15.4688H19.3164V23.5352V26.4648V34.5312H21.7676V36.5527H24.6973V34.5312H26.4844V36.5527H29.4141V34.248Z" fill="url(#paint0_linear)"/>
<defs>
<linearGradient id="paint0_linear" x1="29.2157" y1="-5.83845e-06" x2="-4.99263" y2="3.68778" gradientUnits="userSpaceOnUse">
<stop stop-color="#FD6946"/>
<stop offset="1" stop-color="#F74153"/>
</linearGradient>
</defs>
</svg>
