<svg width="53" height="53" viewBox="0 0 53 53" fill="none" xmlns="http://www.w3.org/2000/svg">
<path fill-rule="evenodd" clip-rule="evenodd" d="M44.4952 38.6789L47.8907 42.0744C54.7031 32.809 54.7031 20.191 47.8907 10.9149L44.4952 14.3104C49.4974 21.6584 49.4974 31.3308 44.4952 38.6789ZM47.4622 8.67623C48.3298 7.80861 48.3298 6.40542 47.4622 5.53779C46.5946 4.67017 45.1914 4.67017 44.3238 5.53779L39.0966 10.765C38.2397 11.6433 38.2504 13.0358 39.1073 13.8927C39.9749 14.7496 41.3674 14.7603 42.235 13.9034L47.4622 8.67623ZM38.6789 8.50485L42.0744 5.10934C32.809 -1.70311 20.191 -1.70311 10.9256 5.10934L14.3104 8.50485C21.6584 3.50263 31.3308 3.50263 38.6789 8.50485ZM8.67623 5.53779C7.80861 4.67017 6.40542 4.67017 5.53779 5.53779C4.67017 6.40542 4.67017 7.80861 5.53779 8.67623L10.765 13.9034C11.6433 14.7389 13.0251 14.7389 13.9034 13.9034C14.771 13.0358 14.771 11.6326 13.9034 10.765L8.67623 5.53779ZM8.50485 14.3211L5.10934 10.9256C-1.70311 20.191 -1.70311 32.809 5.10934 42.0851L8.50485 38.6896C3.50263 31.3415 3.50263 21.6692 8.50485 14.3211ZM5.53779 44.3238C4.67017 45.1914 4.67017 46.5946 5.53779 47.4622C6.40542 48.3298 7.80861 48.3298 8.67623 47.4622L13.9034 42.235C14.4711 41.678 14.696 40.8533 14.4925 40.0821C14.289 39.3108 13.6892 38.711 12.9179 38.5075C12.1467 38.304 11.3219 38.5289 10.765 39.0966L5.53779 44.3238ZM14.3211 44.4951L10.9256 47.8907C20.191 54.7031 32.809 54.7031 42.0851 47.8907L38.6896 44.4951C31.3416 49.4974 21.6692 49.4974 14.3211 44.4951ZM44.3345 47.4622C45.2128 48.2977 46.5946 48.2977 47.4729 47.4622C48.3298 46.5946 48.3298 45.1914 47.4729 44.3238L42.2458 39.0966C41.3674 38.2397 39.9749 38.2504 39.118 39.1073C38.2611 39.9749 38.2504 41.3674 39.1073 42.235L44.3345 47.4622ZM33.4097 16.0989C35.4425 15.7472 37.5044 16.3436 39.0838 17.72C40.8386 19.234 41.8916 21.4516 41.9939 23.822C42.1985 29.6755 37.2186 34.0016 28.9369 41.1961L28.9202 41.2106L27.1069 42.7705C26.7559 43.0764 26.2441 43.0764 25.8931 42.7705L24.0797 41.2106L23.9801 41.1238C15.7625 33.9726 10.8021 29.6558 11.0061 23.822C11.0938 21.4516 12.1613 19.2187 13.9162 17.72C15.1885 16.6189 16.7678 16.0224 18.4203 16.0071C18.8005 16.0071 19.1954 16.0377 19.5756 16.0989C21.9154 16.5577 24.0066 17.9341 25.4105 19.9375C25.6445 20.3199 26.054 20.5493 26.4927 20.5493C26.9314 20.5493 27.3262 20.3199 27.5748 19.9375C28.9787 17.9188 31.0699 16.5424 33.4097 16.0989ZM17.2358 22.5374C17.9816 21.7574 19.0053 21.3445 20.0436 21.4057C20.7455 21.4057 21.3305 20.8093 21.3305 20.0599C21.3305 19.3258 20.7601 18.7141 20.0436 18.7141C18.318 18.6376 16.6362 19.3258 15.4078 20.6104C14.1794 21.8951 13.5213 23.6538 13.5945 25.4584C13.5945 26.1925 14.1648 26.8042 14.8667 26.8042H14.8814C15.5833 26.8042 16.1536 26.2078 16.1683 25.4737C16.1098 24.3726 16.49 23.3174 17.2358 22.5374Z" fill="url(#paint0_linear)"/>
<defs>
<linearGradient id="paint0_linear" x1="30.9686" y1="-6.18876e-06" x2="-5.29219" y2="3.90904" gradientUnits="userSpaceOnUse">
<stop stop-color="#FD6946"/>
<stop offset="1" stop-color="#F74153"/>
</linearGradient>
</defs>
</svg>
