<svg width="41" height="49" viewBox="0 0 41 49" fill="none" xmlns="http://www.w3.org/2000/svg">
<path d="M23.8675 32.5474C23.6814 32.3514 23.4488 32.2015 23.2045 32.0747C22.6811 31.798 22.0996 31.6366 21.5296 31.4867V35.8679C22.4601 35.7641 23.5186 35.4297 24.0071 34.5766C24.2397 34.1615 24.2862 33.6657 24.1932 33.2046C24.135 32.9624 24.0304 32.7318 23.8675 32.5474ZM24.0071 34.5881C24.0071 34.5766 24.0071 34.5766 24.0071 34.5881C24.0071 34.5766 24.0071 34.5766 24.0071 34.5881ZM17.1912 25.5375C17.0284 25.7681 16.9353 26.0333 16.9004 26.31C16.8772 26.5867 16.8888 26.898 16.9935 27.1631C17.0982 27.4168 17.3075 27.6013 17.5285 27.7511C17.7728 27.9126 18.0519 28.0509 18.3194 28.1547C18.5521 28.2469 18.8079 28.3391 19.0987 28.4198V24.4537C18.3892 24.6036 17.6099 24.9264 17.1912 25.5375ZM24.0304 34.542C24.0187 34.5535 24.0187 34.565 24.0071 34.5766C24.0187 34.565 24.0187 34.5535 24.0304 34.542ZM24.0536 34.5074C24.0536 34.4958 24.0536 34.4958 24.0536 34.5074V34.5074ZM23.0882 10.6646C26.8451 7.52855 29.3575 0.484083 27.8105 0.172789C25.7518 -0.24227 21.297 1.55632 19.1336 1.87914C16.0746 2.24808 12.7481 -1.40674 10.8755 0.622436C9.35177 2.28267 11.9688 8.30102 16.0513 10.9182C3.86184 16.8558 -13.2593 46.6479 16.6213 48.8154C57.9586 51.813 37.2667 16.4408 23.0882 10.6646ZM26.6357 34.1615C26.5078 35.326 25.8914 36.3751 24.9609 37.09C23.9838 37.8394 22.7509 38.1968 21.5296 38.289V39.5688C21.5296 39.9147 21.3784 40.249 21.1226 40.4681C20.762 40.7794 20.2386 40.8601 19.8082 40.6641C19.3779 40.4681 19.0987 40.03 19.0987 39.5688V38.1622C18.8894 38.1276 18.68 38.0815 18.4706 38.0239C17.3308 37.7126 16.2723 37.1015 15.4931 36.2137C15.1092 35.7641 14.7952 35.2568 14.5742 34.7149C14.516 34.5766 14.4695 34.4267 14.423 34.2768C14.3881 34.1384 14.3416 34.0116 14.3299 33.8733C14.3067 33.6427 14.3532 33.4006 14.4579 33.193C14.6789 32.7664 15.1557 32.5128 15.6443 32.5474C16.1211 32.5935 16.5399 32.9163 16.6911 33.366C16.7376 33.5043 16.7725 33.6427 16.819 33.781C16.8655 33.9194 16.9353 34.0462 17.0051 34.173C17.1447 34.4267 17.3308 34.6457 17.5401 34.8533C17.9705 35.2683 18.5172 35.5335 19.0871 35.6834V30.9102C17.9705 30.622 16.819 30.253 15.9001 29.5497C15.4582 29.2038 15.0743 28.7773 14.8184 28.27C14.5509 27.7396 14.4462 27.1401 14.4462 26.5406C14.4462 25.941 14.5626 25.3415 14.8068 24.7881C15.0394 24.2693 15.3884 23.8081 15.8071 23.4276C16.7027 22.609 17.8891 22.1594 19.0871 21.9864V21.9057V20.6836C19.0871 20.3377 19.2383 20.0034 19.4942 19.7843C19.8548 19.473 20.3782 19.3923 20.8085 19.5883C21.2389 19.7843 21.518 20.2224 21.518 20.6836V21.9057V21.998C21.6809 22.021 21.8321 22.0441 21.9949 22.0671C23.1696 22.2747 24.3095 22.7589 25.1702 23.589C25.5773 23.981 25.903 24.4537 26.1472 24.9726C26.217 25.1109 26.2752 25.2608 26.3217 25.4107C26.3682 25.549 26.4148 25.6989 26.438 25.8373C26.4729 26.0679 26.438 26.31 26.3333 26.529C26.124 26.9671 25.6704 27.2439 25.1818 27.2208C24.705 27.1977 24.2746 26.8864 24.1001 26.4483C24.0536 26.3215 24.0187 26.1716 23.9722 26.0448C23.914 25.9064 23.8559 25.7796 23.7745 25.6643C23.6233 25.4337 23.4255 25.2262 23.2045 25.0648C22.716 24.7074 22.1228 24.5229 21.5296 24.4191V28.9848C22.2275 29.1462 22.937 29.3307 23.6116 29.5959C24.6235 29.9879 25.5889 30.5989 26.1472 31.5674C26.0658 31.4175 25.9728 31.2676 26.1472 31.5674C26.3217 31.8671 26.2403 31.7173 26.1472 31.5789C26.5892 32.3629 26.7404 33.2853 26.6357 34.1615ZM23.9955 34.6111C23.9838 34.6227 23.9838 34.6342 23.9722 34.6457C23.9722 34.6342 23.9838 34.6227 23.9955 34.6111Z" fill="url(#paint0_linear)"/>
<defs>
<linearGradient id="paint0_linear" x1="23.9527" y1="0.00512123" x2="-4.19977" y2="2.5455" gradientUnits="userSpaceOnUse">
<stop stop-color="#FD6946"/>
<stop offset="1" stop-color="#F74153"/>
</linearGradient>
</defs>
</svg>
