<svg width="59" height="70" viewBox="0 0 59 70" fill="none" xmlns="http://www.w3.org/2000/svg">
<path fill-rule="evenodd" clip-rule="evenodd" d="M4.20182 0.0202637H43.9387C43.9387 2.3255 45.8243 4.20213 48.1405 4.20213V34.9696C46.4062 34.4714 44.5788 34.205 42.6816 34.205C31.8337 34.205 23.046 42.951 23.046 53.7474C23.046 58.3 24.6057 62.4819 27.2245 65.8065H4.20182C4.20182 63.5013 2.31624 61.6246 0 61.6246V4.20213C2.31624 4.20213 4.20182 2.3255 4.20182 0.0202637ZM6.55297 9.1138C5.98264 9.68142 5.98264 10.5966 6.55297 11.1642L8.69462 13.2725L6.56461 15.3924C5.99428 15.96 5.99428 16.8752 6.56461 17.4428C6.84396 17.7324 7.21642 17.8714 7.58888 17.8714C7.96134 17.8714 8.3338 17.7208 8.61315 17.4428L10.7548 15.3345L12.8848 17.4544C13.1641 17.744 13.5366 17.883 13.9091 17.883C14.2815 17.883 14.654 17.7324 14.9333 17.4544C15.5037 16.8867 15.5037 15.9716 14.9333 15.404L12.8033 13.2841L14.9333 11.1642C15.5037 10.5966 15.5037 9.68142 14.9333 9.1138C14.363 8.54618 13.4435 8.54618 12.8732 9.1138L10.7432 11.2337L8.61315 9.1138C8.04282 8.54618 7.1233 8.54618 6.55297 9.1138ZM6.55297 23.3623C5.98264 23.9299 5.98264 24.845 6.55297 25.4127L8.69462 27.521L6.56461 29.6409C5.99428 30.2085 5.99428 31.1236 6.56461 31.6913C6.84396 31.9809 7.21642 32.1199 7.58888 32.1199C7.96134 32.1199 8.3338 31.9693 8.61315 31.6913L10.7548 29.5829L12.8848 31.7028C13.1641 31.9924 13.5366 32.1315 13.9091 32.1315C14.2815 32.1315 14.654 31.9809 14.9333 31.7028C15.5037 31.1352 15.5037 30.2201 14.9333 29.6525L12.8033 27.5326L14.9333 25.4127C15.5037 24.845 15.5037 23.9299 14.9333 23.3623C14.363 22.7946 13.4435 22.7946 12.8732 23.3623L10.7432 25.4822L8.61315 23.3623C8.04282 22.7946 7.1233 22.7946 6.55297 23.3623ZM7.57724 56.8172H17.2728C18.076 56.8172 18.7278 56.1685 18.7278 55.3692C18.7278 54.5699 18.076 53.9212 17.2728 53.9212H7.57724C6.77412 53.9212 6.12232 54.5699 6.12232 55.3692C6.12232 56.1685 6.77412 56.8172 7.57724 56.8172ZM7.57724 50.249H17.2728C18.076 50.249 18.7278 49.6003 18.7278 48.801C18.7278 48.0017 18.076 47.353 17.2728 47.353H7.57724C6.77412 47.353 6.12232 48.0017 6.12232 48.801C6.12232 49.6003 6.77412 50.249 7.57724 50.249ZM7.57724 43.6924H17.2728C18.076 43.6924 18.7278 43.0437 18.7278 42.2444C18.7278 41.4451 18.076 40.7964 17.2728 40.7964H7.57724C6.77412 40.7964 6.12232 41.4451 6.12232 42.2444C6.12232 43.0437 6.77412 43.6924 7.57724 43.6924ZM28.2604 31.6913C28.8308 31.1236 28.8308 30.2085 28.2604 29.6409L26.1537 27.521L28.2837 25.4011C28.854 24.8335 28.854 23.9183 28.2837 23.3507C27.7134 22.7831 26.7939 22.7831 26.2235 23.3507L24.0935 25.4706L21.9635 23.3507C21.3932 22.7831 20.4737 22.7831 19.9034 23.3507C19.333 23.9183 19.333 24.8335 19.9034 25.4011L22.0334 27.521L19.9034 29.6409C19.333 30.2085 19.333 31.1236 19.9034 31.6913C20.1827 31.9809 20.5552 32.1199 20.9276 32.1199C21.3001 32.1199 21.6725 31.9693 21.9519 31.6913L24.0819 29.5714L26.2119 31.6913C26.4912 31.9809 26.8637 32.1199 27.2362 32.1199C27.597 32.1199 27.9811 31.9693 28.2604 31.6913ZM28.2604 17.4428C28.8308 16.8752 28.8308 15.96 28.2604 15.3924L26.1537 13.2725L28.2837 11.1526C28.854 10.585 28.854 9.66984 28.2837 9.10222C27.7134 8.53459 26.7939 8.53459 26.2235 9.10222L24.0935 11.2221L21.9635 9.10222C21.3932 8.53459 20.4737 8.53459 19.9034 9.10222C19.333 9.66984 19.333 10.585 19.9034 11.1526L22.0334 13.2725L19.9034 15.3924C19.333 15.96 19.333 16.8752 19.9034 17.4428C20.1827 17.7324 20.5552 17.8714 20.9276 17.8714C21.3001 17.8714 21.6725 17.7208 21.9519 17.4428L24.0819 15.3229L26.2119 17.4428C26.4912 17.7324 26.8637 17.8714 27.2362 17.8714C27.6086 17.8714 27.9811 17.7208 28.2604 17.4428ZM42.2626 17.4428C42.8329 16.8752 42.8329 15.96 42.2626 15.3924L40.1559 13.2725L42.2859 11.1526C42.8562 10.585 42.8562 9.66984 42.2859 9.10222C41.7156 8.53459 40.7961 8.53459 40.2257 9.10222L38.0957 11.2221L35.9657 9.10222C35.3954 8.53459 34.4759 8.53459 33.9055 9.10222C33.3352 9.66984 33.3352 10.585 33.9055 11.1526L36.0355 13.2725L33.9055 15.3924C33.3352 15.96 33.3352 16.8752 33.9055 17.4428C34.1849 17.7324 34.5573 17.8714 34.9298 17.8714C35.3023 17.8714 35.6747 17.7208 35.9541 17.4428L38.0841 15.3229L40.2141 17.4428C40.4934 17.7324 40.8659 17.8714 41.2383 17.8714C41.6108 17.8714 41.9833 17.7208 42.2626 17.4428ZM42.6816 37.5182C44.6021 37.5182 46.4295 37.8426 48.1405 38.4449C54.4723 40.6807 59 46.6928 59 53.7592C59 62.7253 51.6905 70.0001 42.6816 70.0001C38.4798 70.0001 34.6504 68.4131 31.7522 65.8183C28.435 62.8411 26.3632 58.5434 26.3632 53.7592C26.3632 44.793 33.6727 37.5182 42.6816 37.5182ZM41.7039 64.1154C42.507 64.1154 43.1588 63.4667 43.1588 62.6674H43.1472V57.4429C43.1472 56.6436 42.4953 55.9949 41.6922 55.9949H35.7678L40.796 45.882C41.1452 45.1753 40.8542 44.3065 40.1326 43.9474C39.4226 43.5999 38.5496 43.8895 38.1888 44.6077L32.1247 56.8174C31.9035 57.2576 31.9268 57.7904 32.1945 58.2191C32.4622 58.6477 32.9278 58.9025 33.4283 58.9025H40.2489V62.6674C40.2489 63.4667 40.9008 64.1154 41.7039 64.1154ZM47.5236 64.1154C48.3267 64.1154 48.9785 63.4667 48.9785 62.6674V45.2448C48.9785 44.7004 48.6759 44.2138 48.1987 43.959C48.1816 43.959 48.1708 43.9528 48.1571 43.9449C48.1521 43.942 48.1467 43.9389 48.1405 43.9358C47.6749 43.7157 47.1278 43.7621 46.6972 44.0517L42.8562 46.6813C42.1927 47.133 42.0298 48.0366 42.4837 48.6969C42.9376 49.3572 43.8455 49.5194 44.509 49.0676L46.0686 48.0019V62.6674C46.0686 63.4667 46.7204 64.1154 47.5236 64.1154Z" fill="url(#paint0_linear)"/>
<defs>
<linearGradient id="paint0_linear" x1="34.4745" y1="0.0202555" x2="-6.02585" y2="3.7013" gradientUnits="userSpaceOnUse">
<stop stop-color="#FD6946"/>
<stop offset="1" stop-color="#F74153"/>
</linearGradient>
</defs>
</svg>
