<svg width="75" height="75" viewBox="0 0 75 75" fill="none" xmlns="http://www.w3.org/2000/svg">
<path d="M0 8C0 3.58172 3.58172 0 8 0H75V75H8C3.58172 75 0 71.4183 0 67V8Z" fill="white"/>
<path d="M59 16.3934L59 37.5774C59 38.9001 57.8625 39.9814 56.4463 39.9814L43.8005 39.9814L43.8005 33.7878C43.8005 31.0375 41.4252 28.8015 38.5035 28.8015L31.4 28.8015L31.4 16.4039C31.4 15.0812 32.5375 14 33.9537 14L56.4463 14C57.8514 14 59 15.0708 59 16.3934ZM47.6589 31.8668C47.6589 33.263 48.8521 34.3862 50.3353 34.3862C51.8184 34.3862 53.0116 33.263 53.0116 31.8668C53.0116 30.4706 51.8184 29.3474 50.3353 29.3474C48.8521 29.3474 47.6589 30.4811 47.6589 31.8668ZM37.3549 22.1671C37.3549 23.5632 38.5481 24.6865 40.0313 24.6865C41.5144 24.6865 42.7076 23.5632 42.7076 22.1671C42.7076 20.7709 41.5144 19.6477 40.0313 19.6477C38.5481 19.6477 37.3549 20.7709 37.3549 22.1671ZM40.6 34.2077L40.6 55.3812C40.6 56.7144 39.4514 57.7852 38.0463 57.7852L15.5537 57.7852C14.1486 57.7852 13 56.7144 13 55.3812L13 34.2077C13 32.885 14.1375 31.8038 15.5537 31.8038L38.0463 31.8038C39.4514 31.8038 40.6 32.885 40.6 34.2077ZM15.0073 53.3867C15.0073 54.7829 16.2005 55.9061 17.6836 55.9061C19.1668 55.9061 20.36 54.7829 20.36 53.3867C20.36 51.9905 19.1556 50.8673 17.6836 50.8673C16.2005 50.8673 15.0073 52.001 15.0073 53.3867ZM33.1954 53.3867C33.1954 54.7829 34.3886 55.9061 35.8718 55.9061C37.3549 55.9061 38.5481 54.7829 38.5481 53.3867C38.5481 51.9905 37.3438 50.8673 35.8718 50.8673C34.3998 50.8673 33.1954 52.001 33.1954 53.3867ZM24.1292 44.7997C24.1292 46.1959 25.3224 47.3191 26.8056 47.3191C28.2887 47.3191 29.4819 46.1854 29.4819 44.7997C29.4819 43.4036 28.2776 42.2803 26.8056 42.2803C25.3224 42.2803 24.1292 43.4036 24.1292 44.7997ZM15.0073 36.2652C15.0073 37.6614 16.2005 38.7846 17.6836 38.7846C19.1668 38.7846 20.36 37.6614 20.36 36.2652C20.36 34.8691 19.1556 33.7458 17.6836 33.7458C16.2005 33.7458 15.0073 34.8691 15.0073 36.2652ZM33.1954 36.2652C33.1954 37.6614 34.3886 38.7846 35.8718 38.7846C37.3549 38.7846 38.5481 37.6614 38.5481 36.2652C38.5481 34.8691 37.3438 33.7458 35.8718 33.7458C34.3998 33.7458 33.1954 34.8691 33.1954 36.2652Z" fill="url(#paint0_linear)"/>
<defs>
<linearGradient id="paint0_linear" x1="59" y1="32.2009" x2="55.9228" y2="62.1896" gradientUnits="userSpaceOnUse">
<stop stop-color="#FD6946"/>
<stop offset="1" stop-color="#F74153"/>
</linearGradient>
</defs>
</svg>
