<svg width="75" height="75" viewBox="0 0 75 75" fill="none" xmlns="http://www.w3.org/2000/svg">
<path d="M0 8C0 3.58172 3.58172 0 8 0H75V75H8C3.58172 75 0 71.4183 0 67V8Z" fill="white"/>
<path fill-rule="evenodd" clip-rule="evenodd" d="M38 13C44.6797 13 50.959 15.5977 55.6758 20.3242C60.4023 25.041 63 31.3203 63 38C63 44.6797 60.4023 50.9492 55.6758 55.6758C50.959 60.4023 44.6797 63 38 63C31.3203 63 25.0508 60.4023 20.3242 55.6758C15.5977 50.959 13 44.6797 13 38C13 31.3203 15.5977 25.041 20.3242 20.3242C25.041 15.5977 31.3203 13 38 13ZM16.6621 38C16.6621 49.7676 26.2324 59.3379 38 59.3379C49.7676 59.3379 59.3379 49.7676 59.3379 38C59.3379 26.2324 49.7676 16.6621 38 16.6621C26.2324 16.6621 16.6621 26.2324 16.6621 38ZM35.2461 31.3985H40.6855C42.1015 31.3985 43.2538 32.5508 43.2538 33.9668C43.2538 35.3828 42.1015 36.5351 40.6855 36.5351H35.2461V31.3985ZM40.6855 39.4649H35.2461V44.6017H40.6855C42.1015 44.6017 43.2538 43.4493 43.2538 42.0333C43.2538 40.6173 42.1015 39.4649 40.6855 39.4649ZM19.5918 38C19.5918 27.8438 27.8438 19.5919 38 19.5919C48.1562 19.5919 56.4082 27.8438 56.4082 38C56.4082 48.1562 48.1562 56.4081 38 56.4081C27.8438 56.4081 19.5918 48.1562 19.5918 38ZM42.4141 47.248C44.6016 46.5254 46.1836 44.4648 46.1836 42.0332C46.1836 40.4414 45.5 39.0059 44.416 38C45.5 36.9941 46.1836 35.5586 46.1836 33.9668C46.1836 31.5449 44.6016 29.4746 42.4141 28.752V26.4473H39.4844V28.4688H37.6973V26.4473H34.7676V28.4688H32.3164V36.5352V39.4648V47.5312H34.7676V49.5527H37.6973V47.5312H39.4844V49.5527H42.4141V47.248Z" fill="url(#paint0_linear)"/>
<defs>
<linearGradient id="paint0_linear" x1="42.2157" y1="13" x2="8.00737" y2="16.6878" gradientUnits="userSpaceOnUse">
<stop stop-color="#FD6946"/>
<stop offset="1" stop-color="#F74153"/>
</linearGradient>
</defs>
</svg>
