<svg width="76" height="75" viewBox="0 0 76 75" fill="none" xmlns="http://www.w3.org/2000/svg">
<path d="M1 8C1 3.58172 4.58172 0 9 0H76V75H9C4.58172 75 1 71.4183 1 67V8Z" fill="white"/>
<path fill-rule="evenodd" clip-rule="evenodd" d="M55.4952 49.6789L58.8907 53.0744C65.7031 43.809 65.7031 31.191 58.8907 21.9149L55.4952 25.3104C60.4974 32.6584 60.4974 42.3308 55.4952 49.6789ZM58.4622 19.6762C59.3298 18.8086 59.3298 17.4054 58.4622 16.5378C57.5946 15.6702 56.1914 15.6702 55.3238 16.5378L50.0966 21.765C49.2397 22.6433 49.2504 24.0358 50.1073 24.8927C50.9749 25.7496 52.3674 25.7603 53.235 24.9034L58.4622 19.6762ZM49.6789 19.5048L53.0744 16.1093C43.809 9.29689 31.191 9.29689 21.9256 16.1093L25.3104 19.5048C32.6584 14.5026 42.3308 14.5026 49.6789 19.5048ZM19.6762 16.5378C18.8086 15.6702 17.4054 15.6702 16.5378 16.5378C15.6702 17.4054 15.6702 18.8086 16.5378 19.6762L21.765 24.9034C22.6433 25.7389 24.0251 25.7389 24.9034 24.9034C25.771 24.0358 25.771 22.6326 24.9034 21.765L19.6762 16.5378ZM19.5049 25.3211L16.1093 21.9256C9.29689 31.191 9.29689 43.809 16.1093 53.0851L19.5049 49.6896C14.5026 42.3415 14.5026 32.6692 19.5049 25.3211ZM16.5378 55.3238C15.6702 56.1914 15.6702 57.5946 16.5378 58.4622C17.4054 59.3298 18.8086 59.3298 19.6762 58.4622L24.9034 53.235C25.4711 52.678 25.696 51.8533 25.4925 51.0821C25.289 50.3108 24.6892 49.711 23.9179 49.5075C23.1467 49.304 22.3219 49.5289 21.765 50.0966L16.5378 55.3238ZM25.3211 55.4951L21.9256 58.8907C31.191 65.7031 43.809 65.7031 53.0851 58.8907L49.6896 55.4951C42.3416 60.4974 32.6692 60.4974 25.3211 55.4951ZM55.3345 58.4622C56.2128 59.2977 57.5946 59.2977 58.4729 58.4622C59.3298 57.5946 59.3298 56.1914 58.4729 55.3238L53.2458 50.0966C52.3674 49.2397 50.9749 49.2504 50.118 50.1073C49.2611 50.9749 49.2504 52.3674 50.1073 53.235L55.3345 58.4622ZM44.4097 27.0989C46.4425 26.7472 48.5044 27.3436 50.0838 28.72C51.8386 30.234 52.8916 32.4516 52.9939 34.822C53.1985 40.6755 48.2186 45.0016 39.9369 52.1961L39.9202 52.2106L38.1069 53.7705C37.7559 54.0764 37.2441 54.0764 36.8931 53.7705L35.0797 52.2106L34.9801 52.1238C26.7625 44.9726 21.8021 40.6558 22.0061 34.822C22.0938 32.4516 23.1613 30.2187 24.9162 28.72C26.1885 27.6189 27.7678 27.0224 29.4203 27.0071C29.8005 27.0071 30.1954 27.0377 30.5756 27.0989C32.9154 27.5577 35.0066 28.9341 36.4105 30.9375C36.6445 31.3199 37.054 31.5493 37.4927 31.5493C37.9314 31.5493 38.3262 31.3199 38.5748 30.9375C39.9787 28.9188 42.0699 27.5424 44.4097 27.0989ZM28.2358 33.5374C28.9816 32.7574 30.0053 32.3445 31.0436 32.4057C31.7455 32.4057 32.3305 31.8093 32.3305 31.0599C32.3305 30.3258 31.7601 29.7141 31.0436 29.7141C29.318 29.6376 27.6362 30.3258 26.4078 31.6104C25.1794 32.8951 24.5213 34.6538 24.5945 36.4584C24.5945 37.1925 25.1648 37.8042 25.8667 37.8042H25.8814C26.5833 37.8042 27.1536 37.2078 27.1683 36.4737C27.1098 35.3726 27.49 34.3174 28.2358 33.5374Z" fill="url(#paint0_linear)"/>
<defs>
<linearGradient id="paint0_linear" x1="41.9686" y1="11" x2="5.70781" y2="14.909" gradientUnits="userSpaceOnUse">
<stop stop-color="#FD6946"/>
<stop offset="1" stop-color="#F74153"/>
</linearGradient>
</defs>
</svg>
