<svg width="75" height="75" viewBox="0 0 75 75" fill="none" xmlns="http://www.w3.org/2000/svg">
<path d="M0 8C0 3.58172 3.58172 0 8 0H75V75H8C3.58172 75 0 71.4183 0 67V8Z" fill="white"/>
<g clip-path="url(#clip0)">
<path d="M40.8675 45.5474C40.6814 45.3514 40.4488 45.2015 40.2045 45.0747C39.6811 44.798 39.0996 44.6366 38.5296 44.4867V48.8679C39.4601 48.7641 40.5186 48.4297 41.0071 47.5766C41.2397 47.1615 41.2862 46.6657 41.1932 46.2046C41.135 45.9624 41.0304 45.7318 40.8675 45.5474ZM41.0071 47.5881C41.0071 47.5766 41.0071 47.5766 41.0071 47.5881C41.0071 47.5766 41.0071 47.5766 41.0071 47.5881ZM34.1912 38.5375C34.0284 38.7681 33.9353 39.0333 33.9004 39.31C33.8772 39.5867 33.8888 39.898 33.9935 40.1631C34.0982 40.4168 34.3075 40.6013 34.5285 40.7511C34.7728 40.9126 35.0519 41.0509 35.3194 41.1547C35.5521 41.2469 35.8079 41.3391 36.0987 41.4198V37.4537C35.3892 37.6036 34.6099 37.9264 34.1912 38.5375ZM41.0304 47.542C41.0187 47.5535 41.0187 47.565 41.0071 47.5766C41.0187 47.565 41.0187 47.5535 41.0304 47.542ZM41.0536 47.5074C41.0536 47.4958 41.0536 47.4958 41.0536 47.5074V47.5074ZM40.0882 23.6646C43.8451 20.5286 46.3575 13.4841 44.8105 13.1728C42.7518 12.7577 38.297 14.5563 36.1336 14.8791C33.0746 15.2481 29.7481 11.5933 27.8755 13.6224C26.3518 15.2827 28.9688 21.301 33.0513 23.9182C20.8618 29.8558 3.74071 59.6479 33.6213 61.8154C74.9586 64.813 54.2667 29.4408 40.0882 23.6646ZM43.6357 47.1615C43.5078 48.326 42.8914 49.3751 41.9609 50.09C40.9838 50.8394 39.7509 51.1968 38.5296 51.289V52.5688C38.5296 52.9147 38.3784 53.249 38.1226 53.4681C37.762 53.7794 37.2386 53.8601 36.8082 53.6641C36.3779 53.4681 36.0987 53.03 36.0987 52.5688V51.1622C35.8894 51.1276 35.68 51.0815 35.4706 51.0239C34.3308 50.7126 33.2723 50.1015 32.4931 49.2137C32.1092 48.7641 31.7952 48.2568 31.5742 47.7149C31.516 47.5766 31.4695 47.4267 31.423 47.2768C31.3881 47.1384 31.3416 47.0116 31.3299 46.8733C31.3067 46.6427 31.3532 46.4006 31.4579 46.193C31.6789 45.7664 32.1557 45.5128 32.6443 45.5474C33.1211 45.5935 33.5399 45.9163 33.6911 46.366C33.7376 46.5043 33.7725 46.6427 33.819 46.781C33.8655 46.9194 33.9353 47.0462 34.0051 47.173C34.1447 47.4267 34.3308 47.6457 34.5401 47.8533C34.9705 48.2683 35.5172 48.5335 36.0871 48.6834V43.9102C34.9705 43.622 33.819 43.253 32.9001 42.5497C32.4582 42.2038 32.0743 41.7773 31.8184 41.27C31.5509 40.7396 31.4462 40.1401 31.4462 39.5406C31.4462 38.941 31.5626 38.3415 31.8068 37.7881C32.0394 37.2693 32.3884 36.8081 32.8071 36.4276C33.7027 35.609 34.8891 35.1594 36.0871 34.9864V34.9057V33.6836C36.0871 33.3377 36.2383 33.0034 36.4942 32.7843C36.8548 32.473 37.3782 32.3923 37.8085 32.5883C38.2389 32.7843 38.518 33.2224 38.518 33.6836V34.9057V34.998C38.6809 35.021 38.8321 35.0441 38.9949 35.0671C40.1696 35.2747 41.3095 35.7589 42.1702 36.589C42.5773 36.981 42.903 37.4537 43.1472 37.9726C43.217 38.1109 43.2752 38.2608 43.3217 38.4107C43.3682 38.549 43.4148 38.6989 43.438 38.8373C43.4729 39.0679 43.438 39.31 43.3333 39.529C43.124 39.9671 42.6704 40.2439 42.1818 40.2208C41.705 40.1977 41.2746 39.8864 41.1001 39.4483C41.0536 39.3215 41.0187 39.1716 40.9722 39.0448C40.914 38.9064 40.8559 38.7796 40.7745 38.6643C40.6233 38.4337 40.4255 38.2262 40.2045 38.0648C39.716 37.7074 39.1228 37.5229 38.5296 37.4191V41.9848C39.2275 42.1462 39.937 42.3307 40.6116 42.5959C41.6235 42.9879 42.5889 43.5989 43.1472 44.5674C43.0658 44.4175 42.9728 44.2676 43.1472 44.5674C43.3217 44.8671 43.2403 44.7173 43.1472 44.5789C43.5892 45.3629 43.7404 46.2853 43.6357 47.1615ZM40.9955 47.6111C40.9838 47.6227 40.9838 47.6342 40.9722 47.6457C40.9722 47.6342 40.9838 47.6227 40.9955 47.6111Z" fill="url(#paint0_linear)"/>
</g>
<defs>
<linearGradient id="paint0_linear" x1="40.9527" y1="13.0051" x2="12.8002" y2="15.5455" gradientUnits="userSpaceOnUse">
<stop stop-color="#FD6946"/>
<stop offset="1" stop-color="#F74153"/>
</linearGradient>
<clipPath id="clip0">
<rect width="41" height="49" fill="white" transform="translate(17 13)"/>
</clipPath>
</defs>
</svg>
