<svg width="108" height="108" viewBox="0 0 108 108" fill="none" xmlns="http://www.w3.org/2000/svg">
<path d="M0 8C0 3.58172 3.58172 0 8 0H108V108H8C3.58172 108 0 104.418 0 100V8Z" fill="white"/>
<path fill-rule="evenodd" clip-rule="evenodd" d="M48.1963 28.7568L40.749 21.4053C39.8682 20.5298 38.667 20.0316 37.3858 20.0014C36.1045 19.9712 34.8873 20.4241 33.9584 21.2543L11.4885 41.4822C10.5596 42.3125 10.0311 43.4446 9.99906 44.6523C9.96703 45.8599 10.4475 47.0072 11.3284 47.8827L25.8545 62.2234V37.814C25.8545 32.8175 30.1627 28.7568 35.4639 28.7568H48.1963ZM88.3805 29.2857L58.271 22.0851C57.0218 21.7832 55.7406 21.9643 54.6355 22.5832C53.5304 23.2021 52.7457 24.1834 52.4414 25.3608L51.5125 28.7573H66.5351C71.8363 28.7573 76.1445 32.818 76.1445 37.8147V82.875C76.657 82.7693 77.1535 82.5882 77.6019 82.3316C78.707 81.7126 79.4918 80.7314 79.7961 79.554L91.8398 34.7805C92.4965 32.3652 90.943 29.8895 88.3805 29.2857ZM35.4648 33.2859H66.5352C69.1777 33.2859 71.3398 35.3238 71.3398 37.8146V84.007C71.3398 86.4977 69.1777 88.5356 66.5352 88.5356H35.4648C32.8223 88.5356 30.6602 86.4977 30.6602 84.007V37.8146C30.6602 35.3238 32.8223 33.2859 35.4648 33.2859ZM44.4336 44.0037C44.4336 42.7508 43.3605 41.7394 42.0312 41.7394C40.702 41.7394 39.6289 42.7508 39.6289 44.0037C39.6289 45.2567 40.702 46.2681 42.0312 46.2681C43.3605 46.2681 44.4336 45.2567 44.4336 44.0037ZM49.3984 71.055C49.8469 71.4324 50.4234 71.6286 51 71.6286C51.5766 71.6286 52.1531 71.4324 52.6176 71.055L59.7766 65.0168L59.8246 64.9715C61.6184 63.3713 62.4832 60.941 62.1309 58.4955C61.7945 56.1557 60.3852 54.163 58.3512 53.1366C57.3742 52.6535 56.3332 52.3969 55.2602 52.3969C53.6426 52.3969 52.1531 52.9705 51 53.9517C49.8469 52.9856 48.3574 52.3969 46.7398 52.3969C45.6828 52.3969 44.6418 52.6384 43.6488 53.1366C41.6309 54.163 40.2215 56.1557 39.8852 58.4955C39.5328 60.9561 40.3977 63.3713 42.1914 64.9715L42.2395 65.0168L49.3984 71.055ZM57.5664 77.8178C57.5664 79.0707 58.6395 80.0821 59.9688 80.0821C61.298 80.0821 62.3711 79.0707 62.3711 77.8178C62.3711 76.5649 61.298 75.5535 59.9688 75.5535C58.6395 75.5535 57.5664 76.5649 57.5664 77.8178Z" fill="url(#paint0_linear)"/>
<defs>
<linearGradient id="paint0_linear" x1="57.9071" y1="20" x2="2.08692" y2="27.1992" gradientUnits="userSpaceOnUse">
<stop stop-color="#FD6946"/>
<stop offset="1" stop-color="#F74153"/>
</linearGradient>
</defs>
</svg>
