<svg width="108" height="108" viewBox="0 0 108 108" fill="none" xmlns="http://www.w3.org/2000/svg">
<path d="M0 8C0 3.58172 3.58172 0 8 0H108V108H8C3.58172 108 0 104.418 0 100V8Z" fill="white"/>
<path d="M66.5 39.2242V17.617C66.5 15.6182 64.8 14 62.7 14H45.3C43.2 14 41.5 15.6182 41.5 17.617V39.2242C38.2 40.7471 36 43.9834 36 47.6005V89.2917C36 91.0051 37.5 92.4329 39.3 92.4329H68.7C70.5 92.4329 72 91.0051 72 89.2917V47.6957C72 43.9834 69.8 40.7471 66.5 39.2242ZM62.5 17.8074V34.4649H59.5V21.1389H56.4C55.5 22.3763 52.7 23.6137 49.4 24.28C49.1 24.3752 48.8 24.3752 48.6 24.3752V34.4649H45.6V17.8074H62.5ZM65.4 65.4002H42.6C42 65.4002 41.5 64.9243 41.5 64.3531V49.3138C41.5 48.7427 42 48.2668 42.6 48.2668H65.5C66.1 48.2668 66.6 48.7427 66.6 49.3138V64.4483C66.5 64.9242 66 65.4002 65.4 65.4002Z" fill="url(#paint0_linear)"/>
<defs>
<linearGradient id="paint0_linear" x1="57.0353" y1="14" x2="32.1799" y2="15.2299" gradientUnits="userSpaceOnUse">
<stop stop-color="#FD6946"/>
<stop offset="1" stop-color="#F74153"/>
</linearGradient>
</defs>
</svg>
