<svg width="108" height="108" viewBox="0 0 108 108" fill="none" xmlns="http://www.w3.org/2000/svg">
<path d="M0 8C0 3.58172 3.58172 0 8 0H108V108H8C3.58172 108 0 104.418 0 100V8Z" fill="white"/>
<path fill-rule="evenodd" clip-rule="evenodd" d="M32.2018 20.0203H71.9387C71.9387 22.3255 73.8243 24.2021 76.1405 24.2021V54.9696C74.4062 54.4714 72.5788 54.205 70.6816 54.205C59.8337 54.205 51.046 62.951 51.046 73.7474C51.046 78.3 52.6057 82.4819 55.2245 85.8065H32.2018C32.2018 83.5013 30.3162 81.6246 28 81.6246V24.2021C30.3162 24.2021 32.2018 22.3255 32.2018 20.0203ZM34.553 29.1138C33.9826 29.6814 33.9826 30.5966 34.553 31.1642L36.6946 33.2725L34.5646 35.3924C33.9943 35.96 33.9943 36.8752 34.5646 37.4428C34.844 37.7324 35.2164 37.8714 35.5889 37.8714C35.9613 37.8714 36.3338 37.7208 36.6131 37.4428L38.7548 35.3345L40.8848 37.4544C41.1641 37.744 41.5366 37.883 41.9091 37.883C42.2815 37.883 42.654 37.7324 42.9333 37.4544C43.5037 36.8867 43.5037 35.9716 42.9333 35.404L40.8033 33.2841L42.9333 31.1642C43.5037 30.5966 43.5037 29.6814 42.9333 29.1138C42.363 28.5462 41.4435 28.5462 40.8732 29.1138L38.7432 31.2337L36.6131 29.1138C36.0428 28.5462 35.1233 28.5462 34.553 29.1138ZM34.553 43.3623C33.9826 43.9299 33.9826 44.845 34.553 45.4127L36.6946 47.521L34.5646 49.6409C33.9943 50.2085 33.9943 51.1236 34.5646 51.6913C34.844 51.9809 35.2164 52.1199 35.5889 52.1199C35.9613 52.1199 36.3338 51.9693 36.6131 51.6913L38.7548 49.5829L40.8848 51.7028C41.1641 51.9924 41.5366 52.1315 41.9091 52.1315C42.2815 52.1315 42.654 51.9809 42.9333 51.7028C43.5037 51.1352 43.5037 50.2201 42.9333 49.6525L40.8033 47.5326L42.9333 45.4127C43.5037 44.845 43.5037 43.9299 42.9333 43.3623C42.363 42.7946 41.4435 42.7946 40.8732 43.3623L38.7432 45.4822L36.6131 43.3623C36.0428 42.7946 35.1233 42.7946 34.553 43.3623ZM35.5772 76.8172H45.2728C46.076 76.8172 46.7278 76.1685 46.7278 75.3692C46.7278 74.5699 46.076 73.9212 45.2728 73.9212H35.5772C34.7741 73.9212 34.1223 74.5699 34.1223 75.3692C34.1223 76.1685 34.7741 76.8172 35.5772 76.8172ZM35.5772 70.249H45.2728C46.076 70.249 46.7278 69.6003 46.7278 68.801C46.7278 68.0017 46.076 67.353 45.2728 67.353H35.5772C34.7741 67.353 34.1223 68.0017 34.1223 68.801C34.1223 69.6003 34.7741 70.249 35.5772 70.249ZM35.5772 63.6924H45.2728C46.076 63.6924 46.7278 63.0437 46.7278 62.2444C46.7278 61.4451 46.076 60.7964 45.2728 60.7964H35.5772C34.7741 60.7964 34.1223 61.4451 34.1223 62.2444C34.1223 63.0437 34.7741 63.6924 35.5772 63.6924ZM56.2604 51.6913C56.8308 51.1236 56.8308 50.2085 56.2604 49.6409L54.1537 47.521L56.2837 45.4011C56.854 44.8335 56.854 43.9183 56.2837 43.3507C55.7134 42.7831 54.7939 42.7831 54.2235 43.3507L52.0935 45.4706L49.9635 43.3507C49.3932 42.7831 48.4737 42.7831 47.9034 43.3507C47.333 43.9183 47.333 44.8335 47.9034 45.4011L50.0334 47.521L47.9034 49.6409C47.333 50.2085 47.333 51.1236 47.9034 51.6913C48.1827 51.9809 48.5552 52.1199 48.9276 52.1199C49.3001 52.1199 49.6725 51.9693 49.9519 51.6913L52.0819 49.5714L54.2119 51.6913C54.4912 51.9809 54.8637 52.1199 55.2362 52.1199C55.597 52.1199 55.9811 51.9693 56.2604 51.6913ZM56.2604 37.4428C56.8308 36.8752 56.8308 35.96 56.2604 35.3924L54.1537 33.2725L56.2837 31.1526C56.854 30.585 56.854 29.6698 56.2837 29.1022C55.7134 28.5346 54.7939 28.5346 54.2235 29.1022L52.0935 31.2221L49.9635 29.1022C49.3932 28.5346 48.4737 28.5346 47.9034 29.1022C47.333 29.6698 47.333 30.585 47.9034 31.1526L50.0334 33.2725L47.9034 35.3924C47.333 35.96 47.333 36.8752 47.9034 37.4428C48.1827 37.7324 48.5552 37.8714 48.9276 37.8714C49.3001 37.8714 49.6725 37.7208 49.9519 37.4428L52.0819 35.3229L54.2119 37.4428C54.4912 37.7324 54.8637 37.8714 55.2362 37.8714C55.6086 37.8714 55.9811 37.7208 56.2604 37.4428ZM70.2626 37.4428C70.8329 36.8752 70.8329 35.96 70.2626 35.3924L68.1559 33.2725L70.2859 31.1526C70.8562 30.585 70.8562 29.6698 70.2859 29.1022C69.7156 28.5346 68.7961 28.5346 68.2257 29.1022L66.0957 31.2221L63.9657 29.1022C63.3954 28.5346 62.4759 28.5346 61.9055 29.1022C61.3352 29.6698 61.3352 30.585 61.9055 31.1526L64.0355 33.2725L61.9055 35.3924C61.3352 35.96 61.3352 36.8752 61.9055 37.4428C62.1849 37.7324 62.5573 37.8714 62.9298 37.8714C63.3023 37.8714 63.6747 37.7208 63.9541 37.4428L66.0841 35.3229L68.2141 37.4428C68.4934 37.7324 68.8659 37.8714 69.2383 37.8714C69.6108 37.8714 69.9833 37.7208 70.2626 37.4428ZM70.6816 57.5182C72.6021 57.5182 74.4295 57.8426 76.1405 58.4449C82.4723 60.6807 87 66.6928 87 73.7592C87 82.7253 79.6905 90.0001 70.6816 90.0001C66.4798 90.0001 62.6504 88.4131 59.7522 85.8183C56.435 82.8411 54.3632 78.5434 54.3632 73.7592C54.3632 64.793 61.6727 57.5182 70.6816 57.5182ZM69.7039 84.1154C70.507 84.1154 71.1588 83.4667 71.1588 82.6674H71.1472V77.4429C71.1472 76.6436 70.4953 75.9949 69.6922 75.9949H63.7678L68.796 65.882C69.1452 65.1753 68.8542 64.3065 68.1326 63.9474C67.4226 63.5999 66.5496 63.8895 66.1888 64.6077L60.1247 76.8174C59.9035 77.2576 59.9268 77.7904 60.1945 78.2191C60.4622 78.6477 60.9278 78.9025 61.4283 78.9025H68.2489V82.6674C68.2489 83.4667 68.9008 84.1154 69.7039 84.1154ZM75.5236 84.1154C76.3267 84.1154 76.9785 83.4667 76.9785 82.6674V65.2448C76.9785 64.7004 76.6759 64.2138 76.1987 63.959C76.1816 63.959 76.1708 63.9528 76.1571 63.9449C76.1521 63.942 76.1467 63.9389 76.1405 63.9358C75.6749 63.7157 75.1278 63.7621 74.6972 64.0517L70.8562 66.6813C70.1927 67.133 70.0298 68.0366 70.4837 68.6969C70.9376 69.3572 71.8455 69.5194 72.509 69.0676L74.0686 68.0019V82.6674C74.0686 83.4667 74.7204 84.1154 75.5236 84.1154Z" fill="url(#paint0_linear)"/>
<defs>
<linearGradient id="paint0_linear" x1="62.4745" y1="20.0203" x2="21.9742" y2="23.7013" gradientUnits="userSpaceOnUse">
<stop stop-color="#FD6946"/>
<stop offset="1" stop-color="#F74153"/>
</linearGradient>
</defs>
</svg>
